<?xml version="1.0" standalone="no"?>
<!DOCTYPE svg PUBLIC "-//W3C//DTD SVG 20010904//EN"
 "http://www.w3.org/TR/2001/REC-SVG-20010904/DTD/svg10.dtd">
<svg version="1.0" xmlns="http://www.w3.org/2000/svg"
 width="1280.000000pt" height="936.000000pt" viewBox="0 0 1280.000000 936.000000"
 preserveAspectRatio="xMidYMid meet">
<metadata>
Created by potrace 1.15, written by Peter Selinger 2001-2017
</metadata>
<g transform="translate(0.000000,936.000000) scale(0.100000,-0.100000)"
fill="#000000" stroke="none">
<path d="M5236 9152 c-26 -86 -57 -187 -69 -223 l-22 -67 -219 84 c-121 46
-220 84 -221 84 -1 0 11 -26 27 -57 21 -43 25 -58 16 -64 -10 -6 -5 -24 19
-71 65 -128 117 -223 125 -228 4 -3 -5 -13 -20 -22 -23 -14 -229 -107 -342
-155 l-35 -15 58 -22 57 -21 -31 -14 c-52 -23 -34 -43 71 -74 240 -73 260 -80
260 -96 0 -9 -29 -93 -65 -186 -36 -94 -65 -171 -65 -172 0 -1 11 2 25 7 24 9
25 8 15 -11 -17 -30 -5 -52 22 -43 12 3 83 40 157 81 156 87 186 95 217 61 12
-12 51 -90 88 -173 37 -82 72 -154 77 -160 16 -16 36 19 63 109 14 45 35 115
47 156 27 89 56 124 96 114 16 -4 97 -33 181 -65 85 -33 158 -59 163 -59 15 0
10 42 -7 61 -16 17 -15 18 17 9 18 -5 34 -8 35 -7 2 1 -37 77 -86 167 -49 91
-90 170 -90 176 0 10 120 68 275 135 48 21 67 40 54 56 -6 7 -23 13 -38 13
-21 1 -14 7 37 33 l63 33 -183 54 c-101 30 -198 60 -215 67 l-33 13 24 63 c13
34 38 99 56 145 18 45 29 89 26 97 -3 8 3 43 14 78 11 34 20 63 20 64 0 1 -91
-48 -202 -108 -111 -60 -207 -108 -213 -105 -5 2 -50 95 -99 205 -50 111 -93
204 -97 206 -3 3 -27 -66 -53 -153z"/>
<path d="M10354 9032 c-6 -4 -66 -69 -133 -146 l-124 -138 -138 138 c-77 76
-139 133 -139 126 0 -9 -7 -8 -25 4 l-25 16 0 -53 c0 -30 5 -119 11 -198 13
-195 30 -181 -218 -181 -149 0 -193 -3 -193 -13 0 -7 63 -67 140 -135 120
-105 140 -127 140 -151 0 -25 -21 -50 -129 -152 -117 -110 -148 -145 -138
-155 2 -2 90 1 197 8 l193 11 19 -23 c18 -22 19 -36 12 -206 -5 -143 -4 -183
6 -189 8 -5 18 -1 26 9 12 16 12 16 16 0 2 -13 41 26 132 129 71 81 132 147
135 147 3 0 67 -64 142 -141 82 -85 141 -139 148 -135 6 4 9 12 6 17 -9 13 9
11 24 -3 11 -11 13 -1 8 57 -4 39 -9 134 -13 212 l-7 143 218 2 218 3 -162
144 -163 144 153 155 154 154 -175 -7 c-96 -4 -193 -8 -215 -9 l-40 -1 -3 209
c-2 182 -4 207 -17 196 -12 -10 -15 -9 -15 4 0 17 -9 20 -26 8z"/>
<path d="M7425 8256 c-71 -23 -121 -54 -167 -104 -85 -95 -132 -213 -192 -479
-52 -225 -55 -230 -213 -269 -251 -61 -413 -195 -533 -441 -27 -56 -114 -211
-193 -345 -194 -326 -226 -385 -322 -578 -104 -209 -144 -309 -194 -490 -22
-80 -70 -239 -106 -355 -75 -237 -99 -336 -115 -480 -29 -265 -120 -497 -373
-945 -57 -101 -428 -643 -564 -825 -75 -99 -142 -194 -151 -212 -17 -36 -27
-39 -147 -48 -130 -10 -598 -52 -660 -60 -22 -3 -152 -19 -290 -35 -1473 -178
-2497 -487 -2760 -831 -42 -55 -74 -136 -74 -184 0 -41 29 -120 63 -174 17
-26 29 -61 31 -86 4 -58 38 -120 109 -193 631 -658 3848 -1077 7041 -917 2181
110 3887 476 4294 921 52 57 101 139 101 170 0 8 20 41 44 72 123 156 116 290
-21 434 -340 356 -1488 666 -3073 828 -280 29 -281 29 -269 49 5 9 43 153 83
321 205 840 368 1479 386 1518 24 51 55 67 150 77 82 9 123 35 150 96 45 106
130 374 130 413 0 23 -12 74 -26 114 -34 91 -28 114 54 228 125 174 127 198
38 471 -76 234 -109 359 -131 498 -33 213 -63 285 -153 365 -65 58 -119 88
-322 175 -85 37 -191 85 -234 107 -44 22 -139 60 -210 84 -139 47 -415 179
-505 241 -89 62 -92 69 -107 257 -14 178 -29 256 -68 360 -47 124 -133 219
-227 249 -62 20 -215 22 -274 3z m1085 -1733 c162 -47 317 -97 344 -111 32
-18 62 -46 91 -87 86 -122 121 -210 184 -465 11 -47 27 -110 36 -140 16 -59
45 -285 45 -356 0 -66 -33 -94 -112 -94 -55 0 -72 7 -282 115 -281 145 -339
169 -565 239 -278 86 -309 106 -430 276 -64 89 -77 127 -67 184 8 43 275 461
318 498 58 51 62 50 438 -59z m-929 -1204 c162 -99 241 -134 554 -247 178 -64
220 -75 277 -76 36 -1 64 -4 61 -8 -6 -10 26 2 117 46 105 51 149 50 232 -7
101 -69 157 -171 144 -263 -3 -23 -37 -117 -76 -210 -309 -734 -453 -1135
-555 -1544 -30 -124 -61 -245 -68 -269 l-12 -44 -120 6 c-569 29 -636 34 -617
46 5 3 33 72 60 152 60 176 59 173 128 251 31 35 64 79 74 99 42 80 77 291 90
529 6 103 17 196 35 275 41 189 45 222 34 277 -15 70 -58 109 -161 147 -121
46 -161 66 -202 102 -69 60 -78 91 -147 509 -48 291 -20 334 152 229z m-1074
-731 c30 -33 46 -69 91 -203 59 -174 74 -257 77 -435 2 -121 7 -169 23 -220
42 -135 47 -173 46 -335 0 -144 -3 -169 -27 -248 -15 -48 -45 -123 -66 -165
-49 -98 -91 -199 -84 -206 13 -12 -100 -16 -650 -19 l-587 -3 42 43 c27 28 80
63 144 95 121 60 197 117 260 196 73 91 103 164 115 278 12 113 20 135 100
271 35 59 63 119 66 141 5 36 1 44 -46 96 -56 61 -61 83 -33 136 29 56 395
543 431 573 40 33 71 34 98 5z"/>
<path d="M2727 7438 c-4 -29 -9 -126 -13 -215 -4 -90 -10 -163 -13 -163 -10 0
-331 39 -381 46 l-45 6 30 -33 c17 -19 39 -45 50 -58 19 -22 19 -23 1 -20 -48
9 -13 -45 122 -189 l50 -54 -124 -98 c-68 -54 -137 -108 -152 -119 l-27 -20
35 -2 c39 -1 96 -16 68 -18 -21 -1 -51 -42 -39 -54 5 -5 78 -13 162 -17 85 -4
162 -11 172 -15 21 -9 22 -50 2 -195 -17 -126 -18 -153 -5 -145 6 3 10 -3 10
-14 0 -40 21 -30 111 51 123 112 158 138 186 138 29 0 46 -17 152 -152 46 -60
89 -108 96 -108 24 0 34 49 39 199 4 108 10 157 19 163 18 12 90 10 226 -7
142 -18 158 -13 122 36 l-24 32 48 -8 48 -7 -52 59 c-206 229 -203 226 -183
237 38 21 221 169 226 183 7 16 -17 28 -40 19 -25 -10 -6 12 48 54 27 22 44
40 36 40 -42 0 -395 21 -404 24 -7 3 -5 49 7 147 9 79 19 175 23 213 l6 69
-28 -25 c-15 -14 -87 -80 -160 -146 l-133 -122 -131 168 c-72 92 -132 168
-133 170 -1 1 -5 -21 -8 -50z"/>
<path d="M11616 7102 c-2 -4 -34 -109 -71 -232 -37 -124 -74 -233 -84 -243
-17 -17 -26 -15 -227 63 -115 44 -227 83 -248 86 -49 8 -55 24 85 -234 60
-111 109 -210 109 -220 0 -30 -23 -43 -235 -137 -231 -102 -241 -108 -223
-123 7 -5 114 -40 238 -77 124 -37 231 -71 238 -77 6 -6 12 -19 12 -29 0 -9
-38 -117 -85 -239 -47 -122 -85 -226 -85 -232 0 -25 83 8 263 106 107 58 202
106 211 106 19 0 21 -3 132 -250 50 -112 97 -206 104 -208 6 -2 14 5 17 17 5
20 6 20 18 4 12 -16 13 -15 18 3 4 10 33 110 67 221 33 111 64 213 69 226 l10
25 232 -89 c127 -49 236 -89 241 -89 5 0 6 5 2 12 -5 8 0 9 14 6 12 -4 22 -4
22 -2 0 2 -56 109 -125 236 -69 128 -122 235 -117 240 4 4 97 47 207 96 110
49 218 98 240 109 l40 21 -95 29 c-52 17 -168 52 -257 78 -107 32 -163 53
-163 62 0 7 41 119 90 248 50 129 90 236 90 239 0 2 -10 2 -22 -2 -14 -3 -19
-2 -14 6 16 26 -27 7 -232 -104 -121 -65 -218 -112 -223 -107 -4 4 -53 109
-108 232 -73 163 -102 219 -107 206 -7 -17 -8 -17 -15 3 -8 22 -24 29 -33 14z"/>
<path d="M4800 6610 l-41 -129 -77 28 c-42 16 -101 38 -130 50 l-52 21 25 -51
c37 -71 48 -102 34 -93 -15 9 -2 -31 22 -72 11 -17 19 -34 19 -38 0 -6 -92
-51 -190 -93 l-35 -14 63 -21 c63 -21 64 -22 38 -35 -44 -23 -32 -41 42 -63
104 -32 101 -26 63 -125 -18 -48 -30 -89 -28 -92 3 -2 14 0 25 6 27 15 39 14
24 -1 -17 -17 -15 -48 3 -48 9 0 47 16 85 36 96 50 110 45 158 -54 21 -44 43
-77 52 -77 9 0 22 26 36 73 13 41 31 80 41 88 26 19 74 17 128 -6 42 -18 95
-27 95 -16 0 3 -5 17 -10 31 -11 28 -7 28 49 7 8 -3 -4 27 -27 69 -43 79 -67
133 -54 126 13 -8 137 58 137 73 0 9 -13 17 -30 20 -29 6 -27 7 40 40 38 18
65 34 60 36 -6 1 -63 18 -127 38 l-117 36 20 45 c11 25 18 49 15 54 -4 5 5 42
19 82 13 40 23 74 21 76 -1 2 -52 -24 -112 -57 -60 -33 -114 -60 -120 -60 -6
0 -35 54 -64 120 -29 66 -54 120 -56 120 -2 0 -22 -58 -44 -130z"/>
<path d="M3165 5020 c-24 -80 -43 -130 -51 -130 -7 0 -66 20 -130 45 -64 25
-118 45 -120 45 -2 0 5 -15 16 -32 29 -51 53 -111 39 -103 -21 13 22 -92 43
-106 13 -8 -38 -38 -135 -79 -42 -19 -74 -37 -70 -40 5 -4 30 -15 57 -25 l49
-18 -27 -14 c-15 -8 -26 -20 -23 -26 2 -7 37 -23 77 -37 40 -14 75 -31 78 -38
2 -6 -10 -49 -27 -94 -17 -44 -29 -83 -27 -85 2 -3 13 0 24 6 29 16 34 14 20
-9 -9 -14 -10 -22 -1 -31 8 -8 30 -1 82 25 39 20 82 36 95 36 30 0 56 -32 86
-105 12 -30 26 -52 31 -49 5 3 9 0 9 -7 0 -26 18 8 40 76 23 69 50 104 81 105
9 0 47 -11 83 -25 37 -14 73 -25 81 -25 18 0 20 31 3 48 -15 15 0 16 36 2 14
-5 26 -7 26 -5 0 3 -20 43 -45 88 -25 46 -45 88 -45 93 1 5 32 23 70 41 73 33
86 53 48 70 -21 9 -19 12 35 40 l59 29 -94 28 c-120 36 -165 55 -152 64 15 10
26 40 30 83 2 20 14 66 27 102 l25 67 -52 -28 c-156 -87 -189 -103 -196 -96
-5 5 -32 61 -60 124 -28 63 -52 116 -54 117 -2 2 -20 -55 -41 -127z"/>
<path d="M882 4439 c-21 -68 -52 -170 -68 -226 -16 -57 -31 -103 -34 -103 -3
1 -102 38 -220 84 -118 45 -217 81 -219 80 -2 -2 1 -9 7 -17 17 -20 53 -109
42 -102 -26 16 -3 -44 64 -169 87 -161 100 -134 -104 -224 -74 -33 -154 -69
-178 -80 l-43 -19 63 -23 62 -23 -34 -11 c-56 -18 -44 -38 35 -63 39 -12 115
-35 170 -52 55 -17 106 -35 113 -40 11 -7 0 -44 -52 -183 -36 -96 -66 -178
-66 -181 0 -4 12 -2 28 4 22 8 25 8 14 -2 -15 -16 -16 -59 -1 -59 13 0 80 33
219 109 108 59 131 67 157 52 12 -6 52 -81 98 -181 58 -126 82 -170 94 -168
16 3 24 24 91 245 17 56 38 109 46 118 26 25 65 18 227 -45 86 -33 164 -60
173 -60 13 0 15 6 9 27 -3 15 -12 32 -18 36 -7 5 2 6 21 3 17 -3 32 -3 32 0 0
3 -38 76 -85 162 -46 86 -87 164 -89 172 -5 11 30 31 142 80 208 91 219 100
162 123 l-30 13 56 27 c31 16 55 29 53 31 -2 2 -92 29 -199 61 -239 70 -232
67 -215 102 15 33 105 270 105 278 0 4 -4 4 -10 0 -8 -5 9 65 30 120 7 18 -32
0 -198 -90 -114 -62 -210 -110 -214 -106 -4 3 -48 98 -98 211 -51 113 -93 207
-95 209 -2 1 -21 -53 -43 -120z"/>
<path d="M11520 4154 c-6 -14 -10 -31 -10 -38 0 -34 -34 -133 -51 -152 -23
-25 -27 -24 -143 20 -37 14 -82 26 -98 26 l-29 0 47 -86 c55 -101 63 -155 26
-184 -12 -10 -53 -28 -90 -41 -127 -41 -128 -73 -3 -88 130 -16 160 -77 105
-206 -41 -95 -42 -105 -8 -102 16 1 70 23 120 49 l91 47 26 -27 c14 -15 39
-63 54 -106 30 -82 50 -104 60 -66 l6 22 12 -23 c12 -21 15 -15 45 81 46 148
48 154 63 143 13 -10 190 -83 201 -83 4 0 4 5 0 11 -5 9 1 10 20 5 16 -4 26
-3 24 1 -1 5 -29 56 -60 115 -32 58 -58 110 -58 116 0 5 54 34 120 63 66 29
120 56 120 59 0 4 -56 24 -125 45 -101 31 -125 42 -125 57 0 10 20 68 45 129
l44 111 -25 -6 c-17 -5 -23 -3 -19 4 13 20 -22 9 -75 -25 -30 -19 -73 -43 -95
-54 l-39 -20 -17 26 c-10 14 -34 66 -55 114 -35 81 -39 87 -50 68 l-11 -21 -6
21 c-7 29 -25 27 -37 -5z"/>
</g>
</svg>
