<?xml version="1.0" standalone="no"?><!DOCTYPE svg PUBLIC "-//W3C//DTD SVG 1.1//EN" "http://www.w3.org/Graphics/SVG/1.1/DTD/svg11.dtd"><svg class="icon" height="512" viewBox="0 0 1024 1024" version="1.1" xmlns="http://www.w3.org/2000/svg"><path d="M464.869297 588.639241c16.465528 4.011355 51.20576 3.753869 67.766151 0.18295 71.95368-15.496569 157.35082-62.704525 287.475923-77.482845-38.134976-61.559392-94.632743-109.804067-161.944905-140.946275-39.876392 28.038829-87.863581 44.409494-139.503001 44.409494-53.59089 0-103.204304-17.678421-143.954792-47.682272-69.758276 30.39008-128.417567 79.217485-167.880627 142.111737 108.828332 7.541618 190.634225 62.975563 258.041251 79.407211zM890.391395 621.73292l-2.961085-0.230382c4.377256-54.065205 7.595826-95.920171 7.683913-114.045804a23.756437 23.756437 0 0 0-7.236701-17.170226 23.756437 23.756437 0 0 0-17.400607-6.633642c-112.31794 4.404359-194.964049 33.412148-261.381789 56.714596-30.600134 10.739861-57.019514 20.009343-81.453544 25.267471-6.355829 1.368739-17.509022 2.215732-29.109427 2.215732-13.836464 0-23.566711-1.165461-28.045606-2.256387-22.29961-5.434302-47.85167-16.147059-74.907989-27.483203-56.877219-23.830972-127.658662-53.48925-213.25908-53.48925-9.913197 0-19.968688 0.39978-29.875108 1.192565a23.715781 23.715781 0 0 0-21.804967 24.766051c1.199341 25.321678 2.988188 65.645282 4.797364 110.827234l-1.51781 0.108415c-22.936548 1.585569-40.201637 22.970428-38.487325 47.756807l6.47102 93.474057c1.578793 22.868789 18.83033 40.655625 39.537595 41.976933 0.853768 40.452347 0.975735 72.400892-0.223606 85.593642a23.715781 23.715781 0 0 0 21.987917 25.809546c130.660402 8.978117 220.360263 56.944979 292.43591 95.493287 15.767607 8.436042 29.515984 12.366086 43.264361 12.366086 16.506184 0 30.207129-5.847634 42.566439-12.162808 101.530647-51.937561 201.570588-82.564798 305.831939-93.616352a23.715781 23.715781 0 0 0 21.201908-22.868789c0.779233-25.795994 2.540977-57.182136 4.783812-90.709475l2.96786 0.230382c22.936548 1.76852 43.088186-16.91274 45.005777-41.644912l7.202822-93.41985c1.91759-24.772827-15.137444-46.293205-38.073993-48.061724z m-50.33844-2.757807c-18.884538 3.0695-34.164277 19.853497-35.810829 41.23158l-7.202822 93.41985c-1.639777 21.337427 10.868604 40.269396 29.041668 46.211893-1.761744 26.263534-3.245674 51.341278-4.207857 73.600233-102.797748 13.362149-201.80097 44.897362-301.983206 96.143777-9.919972 5.075177-15.604984 6.958888-20.96475 6.958888-5.563045 0-12.399966-2.208956-20.896991-6.75561-71.865593-38.439893-160.332233-85.749489-288.627833-99.02355 0.237158-17.725852-0.03388-41.760103-0.609835-69.006147 22.421577-2.147972 39.110711-23.255017 37.423503-47.621289l-6.47102-93.474058c-1.51781-21.960813-17.400607-39.185246-36.955963-41.732999-1.436499-35.77695-2.78491-66.851399-3.679334-86.860742 77.462517-0.955407 141.650973 26.114463 198.14874 49.789588 28.831614 12.081497 56.064107 23.498951 82.009171 29.814125 12.881057 3.144035 30.13937 3.604799 39.273333 3.604799 15.164548 0 29.414345-1.192565 39.09716-3.272778 27.340908-5.88829 56.402904-16.092852 87.172435-26.88692 58.130768-20.409124 129.291663-45.378453 221.769658-52.574499-1.33486 21.493274-3.740317 52.025648-6.525228 86.433859zM512.863262 187.88997m-187.88997 0a187.88997 187.88997 0 1 0 375.779941 0 187.88997 187.88997 0 1 0-375.779941 0Z" /></svg>